<svg width="800" height="520" viewBox="0 0 800 520" fill="none" xmlns="http://www.w3.org/2000/svg">
  <rect width="800" height="520" rx="36" fill="#2E2018"/>
  <circle cx="108" cy="108" r="148" fill="#C96B3B" fill-opacity="0.25"/>
  <circle cx="700" cy="460" r="178" fill="#F2C38A" fill-opacity="0.16"/>
  <rect x="60" y="60" width="680" height="400" rx="28" fill="#F7E8D3"/>
  <rect x="96" y="98" width="208" height="60" rx="18" fill="#C96B3B"/>
  <rect x="324" y="98" width="180" height="16" rx="8" fill="#9B7157"/>
  <rect x="324" y="126" width="260" height="16" rx="8" fill="#C6A58D"/>
  <rect x="96" y="194" width="604" height="90" rx="24" fill="#FFF8EE"/>
  <circle cx="146" cy="239" r="26" fill="#FFB46A"/>
  <rect x="190" y="216" width="210" height="16" rx="8" fill="#604233"/>
  <rect x="190" y="244" width="150" height="14" rx="7" fill="#BC9A7F"/>
  <rect x="588" y="216" width="82" height="34" rx="17" fill="#2E2018"/>
  <rect x="96" y="304" width="294" height="118" rx="24" fill="#C96B3B"/>
  <rect x="410" y="304" width="290" height="118" rx="24" fill="#2E2018"/>
  <path d="M214 354C214 332.461 231.461 315 253 315H304C325.539 315 343 332.461 343 354V422H214V354Z" fill="#F7E8D3"/>
  <path d="M484 382C484 352.177 508.177 328 538 328H572C601.823 328 626 352.177 626 382V422H484V382Z" fill="#F7E8D3"/>
</svg>
