<svg width="800" height="520" viewBox="0 0 800 520" fill="none" xmlns="http://www.w3.org/2000/svg">
  <rect width="800" height="520" rx="36" fill="#1F2232"/>
  <circle cx="120" cy="110" r="156" fill="#E07845" fill-opacity="0.22"/>
  <circle cx="666" cy="424" r="166" fill="#6CC6BE" fill-opacity="0.18"/>
  <rect x="60" y="60" width="680" height="400" rx="28" fill="#F8F1E7"/>
  <rect x="90" y="90" width="620" height="44" rx="14" fill="#E7D8C4"/>
  <circle cx="124" cy="112" r="8" fill="#E07845"/>
  <circle cx="152" cy="112" r="8" fill="#D3A154"/>
  <circle cx="180" cy="112" r="8" fill="#6CC6BE"/>
  <rect x="110" y="166" width="310" height="210" rx="28" fill="#1F2232"/>
  <rect x="144" y="206" width="126" height="14" rx="7" fill="#9CA5C7"/>
  <rect x="144" y="234" width="220" height="18" rx="9" fill="#F8F1E7"/>
  <rect x="144" y="268" width="184" height="14" rx="7" fill="#C5CCDE"/>
  <rect x="144" y="312" width="112" height="38" rx="19" fill="#E07845"/>
  <rect x="448" y="166" width="222" height="98" rx="24" fill="#FFFFFF"/>
  <rect x="478" y="194" width="128" height="14" rx="7" fill="#1F2232"/>
  <rect x="478" y="220" width="98" height="14" rx="7" fill="#7D8399"/>
  <rect x="448" y="278" width="222" height="98" rx="24" fill="#6CC6BE"/>
  <rect x="478" y="306" width="124" height="14" rx="7" fill="#1F2232"/>
  <rect x="478" y="332" width="150" height="14" rx="7" fill="#255952"/>
</svg>
